<?xml version="1.0" encoding="UTF-8"?>
<svg xmlns="http://www.w3.org/2000/svg" width="512" height="512" viewBox="0 0 512 512">
  <path d="M 240.0 76.0 L 288.0 77.0 L 290.0 79.0 L 305.0 80.0 L 306.0 82.0 L 328.0 88.0 L 354.0 104.0 L 370.0 122.0 L 383.0 149.0 L 387.0 173.0 L 439.0 173.0 L 439.0 178.0 L 387.0 178.0 L 383.0 207.0 L 381.0 208.0 L 378.0 221.0 L 367.0 239.0 L 344.0 258.0 L 314.0 270.0 L 351.0 435.0 L 331.0 435.0 L 330.0 433.0 L 305.0 322.0 L 269.0 323.0 L 269.0 435.0 L 247.0 435.0 L 247.0 324.0 L 245.0 322.0 L 210.0 323.0 L 184.0 435.0 L 164.0 435.0 L 168.0 411.0 L 170.0 410.0 L 175.0 389.0 L 176.0 376.0 L 178.0 375.0 L 181.0 355.0 L 183.0 354.0 L 184.0 341.0 L 186.0 340.0 L 197.0 285.0 L 199.0 284.0 L 200.0 270.0 L 166.0 255.0 L 144.0 234.0 L 133.0 210.0 L 130.0 181.0 L 127.0 178.0 L 77.0 178.0 L 77.0 173.0 L 128.0 173.0 L 130.0 171.0 L 133.0 146.0 L 141.0 128.0 L 165.0 101.0 L 195.0 85.0 L 227.0 77.0 L 239.0 77.0 Z" fill="currentColor"/>
</svg>
